<?xml version="1.0" encoding="UTF-8"?>
<svg version="1.1" xmlns="http://www.w3.org/2000/svg" width="842" height="296">
<path d="M0 0 C277.86 0 555.72 0 842 0 C842 97.68 842 195.36 842 296 C564.14 296 286.28 296 0 296 C0 198.32 0 100.64 0 0 Z " fill="#FFFEFE" transform="translate(0,0)"/>
<path d="M0 0 C20 0 20 0 27 4 C29.45825789 6.93404974 29.95857906 8.62030804 30.375 12.4375 C29.89338248 17.01286646 28.43018108 20.0930919 25.6875 23.75 C20.85471194 27.329843 15.73224208 27.19766352 10 27 C10 31.95 10 36.9 10 42 C6.7 42 3.4 42 0 42 C0 28.14 0 14.28 0 0 Z " fill="#FF0C0C" transform="translate(302,114)"/>
<path d="M0 0 C0.84820312 0.48597656 1.69640625 0.97195312 2.5703125 1.47265625 C1.2503125 4.11265625 -0.0696875 6.75265625 -1.4296875 9.47265625 C-2.0896875 9.30765625 -2.7496875 9.14265625 -3.4296875 8.97265625 C-8.99283082 8.0454657 -12.79444435 7.62475239 -17.8046875 10.22265625 C-20.82715557 12.81334317 -22.27313574 14.64948054 -22.6171875 18.65625 C-22.25742722 22.98086831 -21.76440395 25.05211507 -18.9921875 28.53515625 C-14.87777877 31.43417064 -10.24508258 31.02889001 -5.4296875 30.47265625 C-4.1096875 30.14265625 -2.7896875 29.81265625 -1.4296875 29.47265625 C-0.1096875 32.11265625 1.2103125 34.75265625 2.5703125 37.47265625 C-4.56556965 41.1556922 -10.6436869 43.14370336 -18.59375 40.84765625 C-24.99694717 38.07870612 -29.37429738 32.95788298 -32.8671875 27.03515625 C-34.36180496 20.22634337 -33.81475059 14.65915086 -30.4296875 8.47265625 C-23.49332827 -1.63461005 -11.4714151 -5.10856868 0 0 Z " fill="#FF0707" transform="translate(433.4296875,115.52734375)"/>
<path d="M0 0 C2.4375 1 2.4375 1 4 2 C4.33 1.67 4.66 1.34 5 1 C7.97 1 10.94 1 14 1 C14 9.58 14 18.16 14 27 C10 27 6 27 2 27 C1.34 27.33 0.68 27.66 0 28 C-4.17433895 28.40137875 -6.49551713 28.26194303 -10.25 26.3125 C-13.78552723 23.33944301 -15.68149054 21.34753271 -16.31640625 16.66796875 C-16.58213652 10.95048191 -15.96847152 7.39749547 -12 3 C-8.06311101 -0.19207216 -4.99424753 -0.4540225 0 0 Z " fill="#FF0808" transform="translate(487,129)"/>
<path d="M0 0 C2.4375 1 2.4375 1 4 2 C4.33 1.67 4.66 1.34 5 1 C7.97 1 10.94 1 14 1 C14 9.58 14 18.16 14 27 C10 27 6 27 2 27 C1.34 27.33 0.68 27.66 0 28 C-4.17433895 28.40137875 -6.49551713 28.26194303 -10.25 26.3125 C-13.78552723 23.33944301 -15.68149054 21.34753271 -16.31640625 16.66796875 C-16.58213652 10.95048191 -15.96847152 7.39749547 -12 3 C-8.06311101 -0.19207216 -4.99424753 -0.4540225 0 0 Z " fill="#FF0808" transform="translate(348,129)"/>
<path d="M0 0 C3.79907815 2.13137259 5.86719317 4.37403549 7.75 8.375 C8.4006249 13.57999921 7.660372 17.009442 4.75 21.375 C-0.72843202 25.59795801 -5.34802003 27.10841723 -12.25 26.375 C-16.43913372 24.76379472 -19.35392634 22.8073836 -22.25 19.375 C-23.61002222 15.29493333 -23.89114786 11.63717608 -23.25 7.375 C-17.81576154 -1.25584931 -9.30255218 -4.13254641 0 0 Z " fill="#FF0909" transform="translate(461.25,130.625)"/>
<path d="M0 0 C3.94065706 1.5914192 5.62072192 2.43108288 8 6 C8.22705078 8.26831055 8.22705078 8.26831055 8.1953125 10.88671875 C8.18886719 11.82451172 8.18242187 12.76230469 8.17578125 13.72851562 C8.15902344 14.70498047 8.14226562 15.68144531 8.125 16.6875 C8.11597656 17.67556641 8.10695313 18.66363281 8.09765625 19.68164062 C8.07408566 22.12119706 8.03821469 24.56062901 8 27 C5.03 27 2.06 27 -1 27 C-1.495 17.595 -1.495 17.595 -2 8 C-4.31 8.33 -6.62 8.66 -9 9 C-10.585869 12.171738 -10.37866445 15.63513822 -10.5625 19.125 C-10.60568359 19.87910156 -10.64886719 20.63320312 -10.69335938 21.41015625 C-10.7994832 23.27321888 -10.90025001 25.13658524 -11 27 C-13.97 27 -16.94 27 -20 27 C-20 18.42 -20 9.84 -20 1 C-17.03 1 -14.06 1 -11 1 C-10.67 1.66 -10.34 2.32 -10 3 C-9.195625 2.2575 -9.195625 2.2575 -8.375 1.5 C-5.28489945 -0.45164245 -3.61040698 -0.43324884 0 0 Z " fill="#FF0808" transform="translate(388,129)"/>
<path d="M0 0 C2.64 0 5.28 0 8 0 C8 2.97 8 5.94 8 9 C9.98 9 11.96 9 14 9 C14 11.31 14 13.62 14 16 C12.02 16 10.04 16 8 16 C8.33 19.3 8.66 22.6 9 26 C10.32 26.33 11.64 26.66 13 27 C14.35439668 29.70879335 14.06501451 32.00933268 14 35 C10.97228919 35.66622831 8.10560929 36.13005064 5 36 C1.67624797 33.50718598 0.31065245 31.93195734 -1 28 C-1.068991 25.93854893 -1.08467727 23.87498599 -1.0625 21.8125 C-1.05347656 20.72582031 -1.04445313 19.63914063 -1.03515625 18.51953125 C-1.02355469 17.68808594 -1.01195312 16.85664063 -1 16 C-1.99 16 -2.98 16 -4 16 C-4 13.69 -4 11.38 -4 9 C-2.68 9 -1.36 9 0 9 C0 6.03 0 3.06 0 0 Z " fill="#FF0909" transform="translate(509,121)"/>
<path d="M0 0 C1.8125 1.125 1.8125 1.125 3 3 C3.39365568 6.14924548 3.52854531 8.11909116 1.875 10.875 C-0.91106042 12.54663625 -2.81988862 12.46376624 -6 12 C-7.9375 10.375 -7.9375 10.375 -9 8 C-8.875 4.875 -8.875 4.875 -8 2 C-4.76746204 -0.15502531 -3.74849077 -0.46856135 0 0 Z " fill="#FFF2F2" transform="translate(489,137)"/>
<path d="M0 0 C1.8125 1.125 1.8125 1.125 3 3 C3.39365568 6.14924548 3.52854531 8.11909116 1.875 10.875 C-0.91106042 12.54663625 -2.81988862 12.46376624 -6 12 C-7.9375 10.375 -7.9375 10.375 -9 8 C-8.875 4.875 -8.875 4.875 -8 2 C-4.76746204 -0.15502531 -3.74849077 -0.46856135 0 0 Z " fill="#FFF3F3" transform="translate(456,137)"/>
<path d="M0 0 C1.8125 1.125 1.8125 1.125 3 3 C3.39365568 6.14924548 3.52854531 8.11909116 1.875 10.875 C-0.91106042 12.54663625 -2.81988862 12.46376624 -6 12 C-7.9375 10.375 -7.9375 10.375 -9 8 C-8.875 4.875 -8.875 4.875 -8 2 C-4.76746204 -0.15502531 -3.74849077 -0.46856135 0 0 Z " fill="#FFF2F2" transform="translate(350,137)"/>
<path d="M0 0 C3.25295114 -0.22179212 5.42797793 -0.28601103 8.375 1.1875 C10 3 10 3 10.5625 5.5 C10 8 10 8 7.8125 9.8125 C5 11 5 11 0 11 C0 7.37 0 3.74 0 0 Z " fill="#FFF5F5" transform="translate(312,122)"/>
</svg>
