<svg version="1.1" id="Layer_1" xmlns="http://www.w3.org/2000/svg" xmlns:xlink="http://www.w3.org/1999/xlink" x="0px" y="0px"
	 width="100%" viewBox="0 0 475 525" enable-background="new 0 0 475 525" xml:space="preserve">
<path fill="#000000" opacity="1.000000" stroke="none" 
	d="
M476.000000,186.000000 
	C476.000000,299.666656 476.000000,412.833282 476.000000,526.000000 
	C317.666718,526.000000 159.333466,526.000000 1.000146,526.000000 
	C1.000097,351.000092 1.000097,176.000214 1.000049,1.000240 
	C159.333191,1.000160 317.666382,1.000160 475.999786,1.000080 
	C476.000000,62.500000 476.000000,124.000000 476.000000,186.000000 
M190.780594,132.860977 
	C189.503189,133.868774 188.225800,134.876587 186.313004,136.199860 
	C184.759567,137.092590 182.875153,137.675659 181.704666,138.926682 
	C171.637207,149.686951 161.186371,160.175018 153.556381,172.919968 
	C148.414886,181.508179 142.404541,189.756500 140.999924,200.787338 
	C140.980377,201.495407 140.960831,202.203491 140.295135,203.232773 
	C139.624512,203.953033 138.541168,204.577133 138.347473,205.408508 
	C136.524399,213.233185 134.853241,221.093262 133.022675,229.714035 
	C133.069794,230.490875 133.116913,231.267731 133.057693,232.905762 
	C132.978271,236.568466 132.898834,240.231171 132.246048,244.418701 
	C131.829575,247.461136 131.152939,250.495209 131.054932,253.547867 
	C130.890121,258.682281 131.092957,263.828552 131.023224,269.856567 
	C131.042755,272.235291 131.062271,274.614014 131.023087,277.486511 
	C131.023087,277.486511 131.050293,277.983032 130.237335,278.337097 
	C130.168533,278.828888 130.039551,279.320709 130.039444,279.812500 
	C130.022415,355.474670 130.010239,431.136810 130.041595,506.798981 
	C130.042175,508.172363 130.566971,509.545532 131.291199,511.407104 
	C132.215851,510.623230 133.140503,509.839355 134.005478,509.022949 
	C134.005478,509.022949 134.067413,509.064972 134.762802,509.397583 
	C140.427658,505.543427 146.159668,501.783691 151.742188,497.813782 
	C160.982712,491.242584 170.131927,484.542908 179.310074,477.884186 
	C186.564163,472.621368 193.803940,467.338837 201.008621,462.018280 
	C201.008621,462.018280 200.980316,462.073792 201.749542,461.643799 
	C201.786072,434.810883 201.822586,407.977936 201.938431,380.448700 
	C201.973434,379.982910 202.008438,379.517151 202.791550,378.970337 
	C209.075867,381.746918 215.252762,384.809296 221.673508,387.222961 
	C228.649002,389.845093 235.851273,391.863953 243.340958,394.797974 
	C244.041534,395.189545 244.706482,395.827271 245.448212,395.934601 
	C252.890884,397.011871 260.328979,398.691254 267.801392,398.877594 
	C285.027954,399.307251 302.342255,399.752838 319.796997,394.073547 
	C322.534363,392.670197 325.271729,391.266846 328.671692,390.041077 
	C331.996399,389.026581 335.588623,388.513641 338.598267,386.908417 
	C350.009888,380.821808 362.293732,375.703308 372.241974,367.719086 
	C383.221893,358.906921 393.061096,348.468964 401.497406,336.722076 
	C408.425171,327.075745 413.260773,316.674957 417.988953,305.242950 
	C422.359955,296.022369 425.525024,286.508423 425.740845,275.709351 
	C426.161835,273.130524 426.582794,270.551666 427.705994,267.485840 
	C427.788239,256.434814 427.884155,245.383835 427.911774,234.332687 
	C427.913147,233.788681 427.318115,233.243195 427.048340,232.080338 
	C427.024384,231.875107 427.000397,231.669876 426.790497,230.726074 
	C424.541809,220.938049 423.142334,210.847885 419.798645,201.449448 
	C416.640442,192.572372 411.438232,184.422516 407.007782,175.245087 
	C404.968994,171.920090 403.131470,168.449722 400.854462,165.296738 
	C393.347900,154.902206 384.733765,145.497116 374.774261,137.394653 
	C370.334656,133.782852 365.948181,129.992737 361.076508,127.045769 
	C345.147217,117.409859 328.447479,109.400955 309.943115,106.075783 
	C302.009552,104.650146 293.938629,103.267487 285.920563,103.210365 
	C275.190369,103.133911 264.383453,103.843323 253.739670,105.220917 
	C246.928391,106.102478 240.255844,108.517746 233.696564,110.758965 
	C226.661484,113.162735 219.650192,115.793694 212.972855,119.034874 
	C208.031540,121.433395 203.641617,124.967850 198.573807,128.087952 
	C198.573807,128.087952 198.154526,128.227371 197.431229,128.056931 
	C195.468018,129.468185 193.504791,130.879425 191.333832,132.331772 
	C191.333832,132.331772 191.284607,132.537750 190.780594,132.860977 
M427.799561,377.349823 
	C423.324615,373.794708 418.849701,370.239594 414.367859,366.630371 
	C414.367859,366.630371 414.327454,366.593689 414.153076,365.971100 
	C412.678314,364.398529 411.097504,362.911102 409.751556,361.235107 
	C407.200714,358.058777 404.870514,358.853546 402.595551,361.458221 
	C398.685822,365.934540 394.815735,370.445465 391.007843,374.972656 
	C391.007843,374.972656 390.939087,374.921631 390.481842,375.015594 
	C390.481842,375.015594 390.042358,375.173492 389.362793,375.321350 
	C388.485260,375.752472 387.389343,375.978485 386.762939,376.645477 
	C377.392548,386.622833 365.806458,393.311707 353.617462,399.111542 
	C352.306396,399.735382 350.893402,400.141693 349.542969,400.686798 
	C341.971863,403.742920 334.378937,406.747498 326.851440,409.907806 
	C324.112427,411.057678 321.533325,412.588318 318.223389,413.618530 
	C312.444550,414.414490 306.665680,415.210449 300.032837,416.002655 
	C297.010071,416.413788 293.987335,416.824951 290.067108,417.079346 
	C283.387207,417.345154 276.707306,417.610962 269.427582,417.322540 
	C265.514648,416.875244 261.594727,416.480927 257.690674,415.966309 
	C253.439713,415.405975 249.203506,414.733917 244.208801,413.953339 
	C237.490326,412.022400 230.771835,410.091492 223.276764,407.985870 
	C222.048843,407.693787 220.820923,407.401733 218.984970,406.965057 
	C218.984970,409.261627 218.925858,411.062561 218.995163,412.858551 
	C219.301544,420.799072 219.908569,428.738342 219.902939,436.677704 
	C219.896942,445.126221 219.313568,453.573914 219.003143,462.022736 
	C218.895432,464.954315 219.803619,467.233490 223.767685,467.956299 
	C234.838120,469.673004 245.908554,471.389709 257.556671,473.707611 
	C262.293518,474.133179 267.028046,474.862701 271.767853,474.898682 
	C276.501587,474.934692 281.240631,474.276337 286.893921,473.956146 
	C296.589386,472.581879 306.284821,471.207611 316.842102,469.958496 
	C328.442627,467.290558 340.464661,465.765350 351.542084,461.679199 
	C367.048126,455.959503 382.194763,449.035065 396.839386,439.750702 
	C397.979523,438.874451 399.083954,437.946533 400.265564,437.130341 
	C407.774811,431.942902 415.548615,427.100220 422.757202,421.525787 
	C431.202515,414.994873 439.193420,407.872162 447.296021,400.906799 
	C448.554230,399.825195 449.357208,398.213989 450.636566,396.489288 
	C447.429260,393.951721 444.757355,391.837769 441.749786,389.164215 
	C437.196350,385.434204 432.642883,381.704193 427.799561,377.349823 
M260.309509,27.297115 
	C259.217987,27.620024 258.126465,27.942934 256.202240,28.139942 
	C247.568939,29.743437 238.885086,31.118916 230.317535,33.018898 
	C222.771790,34.692280 215.356064,36.951920 207.129501,39.029594 
	C202.092651,40.840275 196.944183,42.394135 192.045654,44.523045 
	C185.045670,47.565235 178.119019,50.821175 171.374695,54.389595 
	C167.358124,56.514767 163.750824,59.413414 160.002472,61.996685 
	C160.002472,61.996685 159.969299,61.951942 159.248642,61.983929 
	C153.819077,65.710014 148.389511,69.436096 142.305435,73.295723 
	C138.373947,76.850761 134.333069,80.293282 130.535141,83.985680 
	C123.865540,90.469948 116.406242,96.418869 110.968544,103.832237 
	C101.413452,116.858978 92.187386,130.315735 84.592102,144.536957 
	C77.350014,158.096893 72.161438,172.782822 66.548065,187.160339 
	C65.327637,190.286224 66.140228,194.205872 65.301361,198.008179 
	C64.253075,199.560898 62.529850,201.007675 62.266747,202.683655 
	C60.638008,213.058792 59.337566,223.485474 57.358467,234.520081 
	C56.886360,241.914597 56.185867,249.304169 56.026207,256.705414 
	C55.927490,261.281433 56.497704,265.894012 57.055828,270.454926 
	C57.489868,274.001770 58.369221,277.494080 59.132912,281.834839 
	C59.051136,283.207611 58.969360,284.580414 58.418098,286.420685 
	C60.294754,294.201050 61.635525,302.161407 64.174034,309.719482 
	C67.954979,320.976776 72.581451,331.950073 76.972900,343.782928 
	C85.796761,364.198456 97.132744,383.034973 112.623199,400.002899 
	C116.917610,399.367859 114.263046,396.078369 114.979706,393.096527 
	C114.988831,361.786530 115.022194,330.476532 114.998672,299.166565 
	C114.982666,277.851410 114.887062,256.536316 114.960335,234.353683 
	C115.258499,231.351242 115.556656,228.348801 115.926308,224.606384 
	C117.358589,217.909332 118.107147,210.972336 120.356651,204.562057 
	C126.150902,188.050568 132.662415,171.672668 143.222031,157.588638 
	C150.617020,147.725479 159.424973,138.904678 167.788177,129.789276 
	C176.121323,120.706635 186.109863,113.606300 196.827637,107.720917 
	C210.883850,100.002335 225.265915,92.773499 241.396439,90.382858 
	C252.913910,88.675896 264.466461,86.811546 276.067657,86.156654 
	C293.254761,85.186432 310.378479,87.487823 326.774445,92.341690 
	C339.079773,95.984558 350.817688,101.778900 362.450195,107.361412 
	C368.329193,110.182793 373.748901,114.259621 378.779053,118.480530 
	C386.096283,124.620560 393.393921,130.941711 399.715607,138.059814 
	C404.670288,143.638657 406.645477,144.738068 412.387848,140.055740 
	C415.581726,137.451431 418.646942,134.676178 421.631653,131.832565 
	C424.208405,129.377625 426.589233,126.717079 429.659454,123.837029 
	C435.604065,118.646461 441.628784,113.542099 447.408112,108.173607 
	C448.288086,107.356178 448.797394,104.652611 448.182526,103.941277 
	C441.419373,96.116707 436.026703,87.108971 427.429443,80.848724 
	C417.169189,73.377541 407.330322,65.329155 397.114197,57.794838 
	C394.078613,55.556122 390.438232,54.097870 386.983612,52.476814 
	C382.465118,50.356606 377.941650,48.197311 373.265961,46.473438 
	C365.954315,43.777729 358.513275,41.432983 350.679077,38.324402 
	C341.051025,35.940414 331.423004,33.556431 321.190613,31.097279 
	C320.788452,31.145374 320.386292,31.193470 319.305389,31.035357 
	C312.218048,30.031261 305.130737,29.027168 297.679718,27.214987 
	C285.450409,27.202372 273.221130,27.189756 260.309509,27.297115 
z"/>
<path fill="#2F3091" opacity="1.000000" stroke="none" 
	d="
M425.073822,276.114929 
	C425.525024,286.508423 422.359955,296.022369 417.535767,305.619202 
	C415.673096,307.265350 413.774414,308.278564 412.947723,309.854248 
	C410.644043,314.245178 409.439697,319.333740 406.619965,323.308929 
	C399.857788,332.842194 393.205750,342.673462 385.039978,350.931580 
	C376.254181,359.816711 366.247223,367.707306 355.922272,374.791901 
	C347.252594,380.740784 337.360199,384.907684 328.009094,389.863495 
	C325.271729,391.266846 322.534363,392.670197 319.229553,393.849365 
	C316.864410,393.221344 314.951935,392.213837 313.291107,392.529663 
	C308.776276,393.388092 304.405487,395.645996 299.910461,395.847137 
	C286.030365,396.468140 272.119232,396.424988 258.219330,396.528625 
	C256.791748,396.539307 255.027893,396.201813 253.988327,395.340240 
	C250.481171,392.433594 246.711792,393.708130 242.954681,394.145844 
	C235.851273,391.863953 228.649002,389.845093 221.673508,387.222961 
	C215.252762,384.809296 209.075867,381.746918 202.097290,378.872559 
	C197.464905,378.608398 199.072723,381.676178 199.065521,383.296295 
	C198.960571,406.931488 199.032684,430.567444 198.963364,454.202881 
	C198.956726,456.467804 198.288391,458.730713 197.606201,461.084045 
	C189.480606,466.795380 181.652206,472.384583 173.889069,478.063080 
	C172.062546,479.399139 170.584122,481.221680 168.726410,482.502655 
	C160.780441,487.981689 152.826248,493.455933 144.721359,498.694122 
	C141.036713,501.075562 136.994675,502.903992 133.095093,504.516113 
	C133.063034,428.150024 133.051132,352.251099 133.036194,276.352173 
	C133.035706,273.906342 133.004166,271.460480 133.092743,268.646881 
	C133.799728,266.140900 134.911819,264.000244 134.901749,261.864929 
	C134.876724,256.564880 134.339447,251.267288 134.253845,245.651733 
	C134.662460,243.434082 134.607330,241.480530 135.052216,239.648422 
	C135.454941,237.989960 136.403275,236.463959 137.467743,234.925964 
	C157.867584,245.045166 179.261749,251.237930 200.901611,257.324127 
	C202.329102,263.194000 203.655258,268.662598 205.126434,274.091888 
	C205.235214,274.493378 206.387466,274.612122 207.345520,275.090179 
	C210.789703,281.828125 213.942963,288.338196 216.963287,295.154602 
	C217.207047,296.747925 217.188858,298.435547 218.023331,299.258118 
	C224.308411,305.453430 230.268478,312.151642 237.332825,317.322968 
	C242.136032,320.839050 246.971710,325.729767 254.279434,325.249329 
	C265.695068,329.621063 277.270782,330.832062 288.991730,329.820007 
	C292.418549,329.524109 295.681488,327.330261 299.417084,326.001709 
	C302.727600,325.647491 306.078644,326.102325 308.472137,324.798828 
	C315.910370,320.748047 323.101593,316.205780 330.171631,311.526306 
	C338.950195,305.716034 344.601105,297.278442 348.737213,287.786713 
	C349.402710,286.259521 349.252991,284.377075 349.514465,282.604309 
	C349.548798,282.549744 349.676605,282.566498 350.037720,282.617523 
	C353.745239,280.043274 353.958923,276.638947 352.812500,272.855530 
	C352.797089,272.810852 352.869202,272.749725 353.245667,272.787842 
	C358.196320,270.788879 357.760773,266.431519 357.851959,262.688690 
	C357.939423,259.096497 359.220032,256.751953 362.601410,256.153992 
	C373.499146,254.226776 384.369446,252.292221 394.612885,247.844925 
	C400.027283,245.494247 405.448029,243.138275 410.970123,241.061783 
	C415.856384,239.224365 420.887024,237.770813 425.870422,236.600922 
	C425.904510,247.362930 425.922089,257.671814 425.661072,268.174286 
	C425.279602,270.950226 425.176697,273.532562 425.073822,276.114929 
z"/>
<path fill="#EA1C25" opacity="1.000000" stroke="none" 
	d="
M319.984131,31.241568 
	C320.386292,31.193470 320.788452,31.145374 321.613007,31.490944 
	C322.866486,32.845840 323.566956,34.470284 324.549286,34.663776 
	C332.683960,36.266117 340.870789,37.603748 349.314758,39.243713 
	C351.507294,40.618969 353.317932,42.035740 355.364624,42.881313 
	C366.857605,47.629631 378.720520,51.607227 389.836090,57.103893 
	C398.300812,61.289703 406.299469,66.774811 413.678101,72.710365 
	C423.041290,80.242332 431.789551,88.588593 440.375702,97.018921 
	C446.000397,102.541473 445.308838,105.979065 439.516785,111.160057 
	C435.775574,114.506599 432.476349,118.347313 428.638672,122.034843 
	C422.443573,127.006912 416.609100,131.935196 410.718262,136.795120 
	C409.441132,137.848755 407.078094,139.701218 406.724426,139.401962 
	C404.962372,137.911148 401.667694,137.227142 402.676941,133.556793 
	C402.828857,133.004379 400.974915,131.900391 400.023438,131.025513 
	C399.998047,130.999481 399.945892,130.948761 399.827209,130.620636 
	C398.116302,129.608994 396.524048,128.925476 394.827393,128.197113 
	C395.423553,127.197243 396.067444,126.117310 396.959900,124.620514 
	C391.360626,126.107780 391.268768,126.168404 388.451141,121.898315 
	C386.995239,119.691925 385.379242,118.454002 382.863770,117.087219 
	C373.937958,112.237396 366.756714,104.611847 356.769348,101.120705 
	C349.499878,98.579628 342.892548,94.163216 335.644012,91.538513 
	C327.161285,88.466919 318.308563,86.412628 309.601471,83.970207 
	C308.342316,83.617004 307.005676,83.498711 305.695099,83.377846 
	C301.627167,83.002670 297.546875,82.749054 293.486176,82.311218 
	C290.534515,81.992950 287.601044,81.057854 284.668549,81.096016 
	C276.851471,81.197731 269.039337,81.676491 261.126495,82.009514 
	C261.013184,84.061668 259.937683,85.041206 256.933868,84.623291 
	C253.246811,84.110313 248.670212,83.079308 245.854965,84.685478 
	C240.401199,87.796997 234.948959,88.084122 229.119537,88.177452 
	C228.052170,88.194542 227.013336,89.993698 226.160599,90.785286 
	C216.199432,95.264404 205.920624,98.937317 196.642349,104.331268 
	C187.759003,109.495621 179.718826,116.204315 171.672546,122.686668 
	C164.419296,128.530121 157.124939,134.495743 150.854675,141.330353 
	C145.999863,146.622131 142.911255,153.495056 138.615540,159.355804 
	C136.521393,162.212891 135.932373,166.874908 130.958633,166.919388 
	C130.915161,166.841843 130.715866,166.823502 130.715866,166.823502 
	C130.715866,166.823502 130.996948,167.002151 131.004013,167.409790 
	C128.723785,177.934616 125.209709,187.440704 116.871185,195.307312 
	C121.873383,197.833725 119.464134,200.773743 117.836876,204.080093 
	C116.703377,206.383209 116.695145,209.217804 115.999466,211.764496 
	C115.168327,214.807022 114.140083,217.795700 112.901825,221.751343 
	C106.109200,217.847794 100.484856,214.621887 94.866753,211.385147 
	C89.885841,208.515518 85.098633,205.225418 79.894508,202.845703 
	C70.209290,198.416885 66.965874,188.043076 72.314705,178.800430 
	C76.155884,172.162933 79.387436,165.156281 82.620239,158.188690 
	C84.888237,153.300552 85.370316,146.383545 89.068359,143.677231 
	C93.249031,140.617722 94.226662,138.427017 93.889519,133.832932 
	C93.762932,132.107956 96.514702,130.234360 97.811325,128.331177 
	C102.736183,121.102394 106.662186,112.891548 112.737946,106.827667 
	C119.735367,99.843933 124.785606,91.025597 133.542206,85.566566 
	C138.006638,82.783356 141.172607,77.917290 145.214050,73.764519 
	C151.710541,71.405342 156.706238,67.760506 159.969299,61.951942 
	C159.969299,61.951942 160.002472,61.996685 160.390915,62.004227 
	C163.191971,60.907444 165.601181,59.795647 168.017746,58.700054 
	C180.190659,53.181274 192.368332,47.673035 204.536957,42.144848 
	C206.714417,41.155632 208.857178,40.090050 211.460052,39.047844 
	C216.169846,38.056557 220.396286,36.827740 224.709244,36.148216 
	C234.523270,34.601986 244.381668,33.338463 254.216049,31.918623 
	C255.168930,31.781054 256.080078,31.354416 257.478271,31.050947 
	C269.443573,31.032835 280.942108,31.102598 292.438446,30.975922 
	C296.332001,30.933022 300.220062,30.393526 304.453125,30.081030 
	C305.480347,30.092272 306.165100,30.103451 307.015869,30.299427 
	C307.422729,30.715813 307.693542,30.904474 308.254456,31.264954 
	C312.337860,31.400322 316.160980,31.320946 319.984131,31.241568 
M74.393791,194.217270 
	C74.226723,194.015228 74.059654,193.813171 73.892578,193.611130 
	C73.784325,193.711700 73.676071,193.812271 73.567825,193.912857 
	C73.759064,194.092758 73.950302,194.272659 74.393791,194.217270 
z"/>
<path fill="#EC1B24" opacity="1.000000" stroke="none" 
	d="
M140.941254,202.911560 
	C140.960831,202.203491 140.980377,201.495407 141.345215,200.391113 
	C142.807007,198.548843 144.099411,197.202621 144.991852,195.629471 
	C145.936188,193.964813 146.274033,191.945511 147.270477,190.322861 
	C150.872925,184.456497 154.836456,178.805771 158.301025,172.862244 
	C163.636200,163.709656 169.433441,155.006729 177.465775,147.903839 
	C181.241760,144.564774 184.515106,140.657333 188.250702,136.761505 
	C189.418320,135.189636 190.351456,133.863693 191.284607,132.537750 
	C191.284607,132.537750 191.333832,132.331772 191.800812,132.473587 
	C195.348145,132.652740 197.455750,131.385071 198.154526,128.227371 
	C198.154526,128.227371 198.573807,128.087952 199.122665,128.049271 
	C200.115311,128.003860 200.559082,127.997124 201.187408,128.160217 
	C201.867798,127.907486 202.363663,127.484940 202.922302,127.004364 
	C202.985077,126.946327 203.116943,126.837448 203.284210,126.738602 
	C203.657532,126.473297 203.818771,126.271049 204.261612,125.880844 
	C206.813965,124.632996 208.992798,123.426079 211.273926,122.460938 
	C221.129684,118.291008 230.805878,113.535812 240.962219,110.292465 
	C247.992935,108.047264 255.685822,107.795952 263.113373,106.909882 
	C266.349762,106.523804 269.663300,106.723381 272.940857,106.754517 
	C283.191956,106.851921 293.692352,105.635490 303.631195,107.460381 
	C316.528381,109.828468 329.520782,113.226967 341.180542,119.650177 
	C352.294525,125.772743 362.953278,132.722916 373.787354,139.349808 
	C374.603821,139.849228 375.246704,140.649017 375.927582,141.350616 
	C378.979736,144.495926 382.103638,147.577744 385.034760,150.832733 
	C388.113037,154.251114 391.026947,157.819275 393.966431,161.360382 
	C398.001221,166.221054 401.992462,171.117889 406.152710,176.343231 
	C408.922729,183.430664 411.605713,190.150406 414.143433,196.924545 
	C416.469269,203.133057 418.662170,209.391922 420.864044,215.646057 
	C421.679016,217.960754 422.223480,220.376266 423.123749,222.653931 
	C424.251343,225.506760 425.193176,227.964996 421.081512,229.341064 
	C418.498505,230.205536 416.187256,231.848389 413.670319,232.950790 
	C408.076813,235.400635 402.498505,237.911301 396.784943,240.052795 
	C392.036591,241.832474 387.093323,243.087189 382.255463,244.634018 
	C375.257080,246.871597 368.282074,249.182343 361.284546,251.422638 
	C358.103882,252.440918 356.832184,250.861542 357.068848,247.903992 
	C357.795959,238.817215 356.606354,229.881241 352.576447,221.841629 
	C348.616547,213.941635 344.089966,206.065887 338.423920,199.350739 
	C332.194550,191.967896 324.587463,185.874527 315.537933,181.509216 
	C305.826965,176.824860 295.989929,172.821106 285.226349,173.236328 
	C274.896179,173.634781 264.683228,172.849930 254.278381,177.326157 
	C245.665314,181.031540 237.617050,185.157410 230.136169,190.527664 
	C228.211716,191.909164 227.396515,194.835907 226.060211,197.054291 
	C226.048676,197.055786 226.054626,197.074738 225.702454,197.115784 
	C218.627731,200.920624 214.808945,206.837631 211.289200,213.622421 
	C204.843826,226.046707 201.093262,238.911057 200.629974,252.863358 
	C199.906448,252.844406 199.493225,252.825180 198.981705,252.527344 
	C197.922638,252.175110 196.961899,252.101440 195.620422,252.004868 
	C189.889038,250.330292 184.565887,248.581009 179.177826,247.062027 
	C175.703857,246.082642 171.944107,245.905441 168.647385,244.552536 
	C161.563324,241.645355 154.714218,238.169861 147.732498,235.007446 
	C143.861359,233.253983 139.916809,231.662643 136.031677,229.582611 
	C137.194336,223.153763 138.338242,217.141937 139.463501,211.126633 
	C139.975098,208.391830 140.449814,205.650131 140.941254,202.911560 
z"/>
<path fill="#2F3191" opacity="1.000000" stroke="none" 
	d="
M256.979004,473.106384 
	C245.908554,471.389709 234.838120,469.673004 223.433731,467.588623 
	C222.912506,464.671265 222.585388,462.122711 222.564728,459.571716 
	C222.507492,452.499054 222.869019,445.411346 222.528488,438.355469 
	C222.039261,428.218414 221.606552,418.129852 224.053360,408.160553 
	C230.771835,410.091492 237.490326,412.022400 244.448792,414.294922 
	C244.562347,415.344910 244.435928,416.053345 244.309509,416.761780 
	C252.839890,418.107971 261.312073,420.796234 270.027405,417.876770 
	C276.707306,417.610962 283.387207,417.345154 290.679718,417.501282 
	C295.560120,418.348328 299.827881,418.773407 304.095673,419.198486 
	C304.136749,418.732758 304.177826,418.266998 304.218903,417.801239 
	C303.108215,417.202972 301.997528,416.604706 300.886841,416.006439 
	C306.665680,415.210449 312.444550,414.414490 318.994415,413.795349 
	C322.952148,413.321564 326.211578,412.911133 329.311096,411.972565 
	C336.793945,409.706665 344.623077,408.035278 351.537445,404.575195 
	C360.899628,399.890106 369.783600,394.110016 378.387604,388.104584 
	C383.110138,384.808411 386.836578,380.085052 390.998718,375.734009 
	C390.969879,375.282379 390.954468,375.101990 390.939087,374.921631 
	C390.939087,374.921631 391.007843,374.972656 391.352570,374.959808 
	C396.374939,374.557373 399.459778,371.816772 401.816589,368.041687 
	C404.037506,364.484222 406.214233,361.225220 410.685669,365.671356 
	C411.449799,366.431152 413.091278,366.308624 414.327454,366.593689 
	C414.327454,366.593689 414.367859,366.630371 414.325195,367.012634 
	C418.518433,370.932800 422.754333,374.470673 427.046936,378.360657 
	C431.259674,382.692627 435.383972,386.706848 439.614410,390.605957 
	C440.108154,391.061005 441.188141,390.879974 442.052124,391.334412 
	C443.340393,393.533569 444.572906,395.392181 446.594543,398.440826 
	C428.556366,412.421021 410.770721,426.205536 392.583984,439.992096 
	C390.880524,440.190063 389.400055,440.054047 388.307159,440.640411 
	C383.981293,442.961151 379.895935,445.750061 375.499268,447.914154 
	C368.987213,451.119476 362.450989,454.410095 355.624207,456.807739 
	C347.002716,459.835754 338.099457,462.078094 329.272827,464.495331 
	C326.633270,465.218231 323.757690,466.021118 321.142639,465.665863 
	C317.443848,465.163391 316.232880,466.623688 315.980286,469.833313 
	C306.284821,471.207611 296.589386,472.581879 286.195892,473.633362 
	C284.650055,472.871368 283.818085,472.086823 282.951965,472.047150 
	C275.414185,471.701752 267.871185,471.409515 260.327240,471.326569 
	C259.217834,471.314392 258.095398,472.483704 256.979004,473.106384 
M277.678101,418.982880 
	C275.752350,419.133026 273.826630,419.283142 271.900879,419.433289 
	C271.947754,419.784149 271.994598,420.134979 272.041443,420.485840 
	C277.356323,420.485840 282.671204,420.485840 287.986084,420.485840 
	C287.999146,419.984375 288.012177,419.482880 288.025238,418.981415 
	C284.886719,418.981415 281.748199,418.981415 277.678101,418.982880 
z"/>
<path fill="#303091" opacity="1.000000" stroke="none" 
	d="
M58.887581,285.953186 
	C58.969360,284.580414 59.051136,283.207611 59.116512,281.435974 
	C59.100113,281.037079 59.124413,280.985046 59.468513,280.873138 
	C61.450737,278.291412 62.131252,275.939301 59.008221,273.658386 
	C59.265167,271.955200 59.725895,270.647217 59.704533,269.347107 
	C59.516388,257.896790 59.242474,246.447906 59.243847,234.703430 
	C59.940968,233.733765 60.678425,233.103470 60.788982,232.377686 
	C61.592228,227.104538 62.198112,221.801163 63.011726,216.529785 
	C63.528542,213.181396 65.239403,209.716980 64.726501,206.580719 
	C63.967579,201.940109 66.015625,201.052917 69.948601,200.837036 
	C72.012848,201.823029 73.757339,202.767380 75.484390,203.742630 
	C87.996582,210.808197 100.505257,217.879990 113.008759,225.366364 
	C112.996857,226.891541 112.991241,228.000137 112.729149,229.420914 
	C112.314941,231.708191 112.021751,233.683121 112.019226,235.658417 
	C111.951782,288.448090 111.914230,341.237823 111.592163,393.842712 
	C108.820953,390.219421 106.203278,386.864166 103.863274,383.325317 
	C98.786980,375.648346 93.680717,367.981567 88.916786,360.110809 
	C85.359406,354.233490 82.319054,348.043243 78.973053,341.628906 
	C77.904541,338.837402 76.767197,336.456848 75.948257,333.971405 
	C74.218605,328.722015 73.453941,322.979462 70.848221,318.232544 
	C66.239143,309.836060 65.482292,300.520081 63.216290,291.597260 
	C62.460781,288.622345 61.718876,286.798401 58.887581,285.953186 
z"/>
<path fill="#D32A32" opacity="1.000000" stroke="none" 
	d="
M113.015045,224.949799 
	C100.505257,217.879990 87.996582,210.808197 75.484390,203.742630 
	C73.757339,202.767380 72.012848,201.823029 69.785034,200.521210 
	C68.201233,199.372025 67.108841,198.565979 66.016449,197.759918 
	C66.140228,194.205872 65.327637,190.286224 66.548065,187.160339 
	C72.161438,172.782822 77.350014,158.096893 84.592102,144.536957 
	C92.187386,130.315735 101.413452,116.858978 110.968544,103.832237 
	C116.406242,96.418869 123.865540,90.469948 130.535141,83.985680 
	C134.333069,80.293282 138.373947,76.850761 142.681915,73.452431 
	C143.680756,73.736992 144.303131,73.864845 144.925491,73.992706 
	C141.172607,77.917290 138.006638,82.783356 133.542206,85.566566 
	C124.785606,91.025597 119.735367,99.843933 112.737946,106.827667 
	C106.662186,112.891548 102.736183,121.102394 97.811325,128.331177 
	C96.514702,130.234360 93.762932,132.107956 93.889519,133.832932 
	C94.226662,138.427017 93.249031,140.617722 89.068359,143.677231 
	C85.370316,146.383545 84.888237,153.300552 82.620239,158.188690 
	C79.387436,165.156281 76.155884,172.162933 72.314705,178.800430 
	C66.965874,188.043076 70.209290,198.416885 79.894508,202.845703 
	C85.098633,205.225418 89.885841,208.515518 94.866753,211.385147 
	C100.484856,214.621887 106.109200,217.847794 112.901825,221.751343 
	C114.140083,217.795700 115.168327,214.807022 115.999466,211.764496 
	C116.695145,209.217804 116.703377,206.383209 117.836876,204.080093 
	C119.464134,200.773743 121.873383,197.833725 116.871185,195.307312 
	C125.209709,187.440704 128.723785,177.934616 131.005539,167.408707 
	C131.000000,167.000000 131.002106,166.996933 131.002106,166.996933 
	C135.932373,166.874908 136.521393,162.212891 138.615540,159.355804 
	C142.911255,153.495056 145.999863,146.622131 150.854675,141.330353 
	C157.124939,134.495743 164.419296,128.530121 171.672546,122.686668 
	C179.718826,116.204315 187.759003,109.495621 196.642349,104.331268 
	C205.920624,98.937317 216.199432,95.264404 226.160599,90.785286 
	C227.013336,89.993698 228.052170,88.194542 229.119537,88.177452 
	C234.948959,88.084122 240.401199,87.796997 245.854965,84.685478 
	C248.670212,83.079308 253.246811,84.110313 256.933868,84.623291 
	C259.937683,85.041206 261.013184,84.061668 261.126495,82.009514 
	C269.039337,81.676491 276.851471,81.197731 284.668549,81.096016 
	C287.601044,81.057854 290.534515,81.992950 293.486176,82.311218 
	C297.546875,82.749054 301.627167,83.002670 305.695099,83.377846 
	C307.005676,83.498711 308.342316,83.617004 309.601471,83.970207 
	C318.308563,86.412628 327.161285,88.466919 335.644012,91.538513 
	C342.892548,94.163216 349.499878,98.579628 356.769348,101.120705 
	C366.756714,104.611847 373.937958,112.237396 382.863770,117.087219 
	C385.379242,118.454002 386.995239,119.691925 388.451141,121.898315 
	C391.268768,126.168404 391.360626,126.107780 396.959900,124.620514 
	C396.067444,126.117310 395.423553,127.197243 394.827393,128.197113 
	C396.524048,128.925476 398.116302,129.608994 399.584656,130.680786 
	C399.178528,131.400391 398.892334,131.728729 398.629730,132.074982 
	C398.620148,132.087616 398.842163,132.275940 398.956268,132.382385 
	C399.320465,131.938782 399.684631,131.495163 400.048828,131.051559 
	C400.974915,131.900391 402.828857,133.004379 402.676941,133.556793 
	C401.667694,137.227142 404.962372,137.911148 406.724426,139.401962 
	C407.078094,139.701218 409.441132,137.848755 410.718262,136.795120 
	C416.609100,131.935196 422.443573,127.006912 428.651031,122.398781 
	C429.021423,123.178764 429.039032,123.663094 429.056641,124.147430 
	C426.589233,126.717079 424.208405,129.377625 421.631653,131.832565 
	C418.646942,134.676178 415.581726,137.451431 412.387848,140.055740 
	C406.645477,144.738068 404.670288,143.638657 399.715607,138.059814 
	C393.393921,130.941711 386.096283,124.620560 378.779053,118.480530 
	C373.748901,114.259621 368.329193,110.182793 362.450195,107.361412 
	C350.817688,101.778900 339.079773,95.984558 326.774445,92.341690 
	C310.378479,87.487823 293.254761,85.186432 276.067657,86.156654 
	C264.466461,86.811546 252.913910,88.675896 241.396439,90.382858 
	C225.265915,92.773499 210.883850,100.002335 196.827637,107.720917 
	C186.109863,113.606300 176.121323,120.706635 167.788177,129.789276 
	C159.424973,138.904678 150.617020,147.725479 143.222031,157.588638 
	C132.662415,171.672668 126.150902,188.050568 120.356651,204.562057 
	C118.107147,210.972336 117.358589,217.909332 115.615273,224.890381 
	C114.541176,225.099533 113.778107,225.024658 113.015045,224.949799 
z"/>
<path fill="#C92937" opacity="1.000000" stroke="none" 
	d="
M226.071732,197.052780 
	C227.396515,194.835907 228.211716,191.909164 230.136169,190.527664 
	C237.617050,185.157410 245.665314,181.031540 254.278381,177.326157 
	C264.683228,172.849930 274.896179,173.634781 285.226349,173.236328 
	C295.989929,172.821106 305.826965,176.824860 315.537933,181.509216 
	C324.587463,185.874527 332.194550,191.967896 338.423920,199.350739 
	C344.089966,206.065887 348.616547,213.941635 352.576447,221.841629 
	C356.606354,229.881241 357.795959,238.817215 357.068848,247.903992 
	C356.832184,250.861542 358.103882,252.440918 361.284546,251.422638 
	C368.282074,249.182343 375.257080,246.871597 382.255463,244.634018 
	C387.093323,243.087189 392.036591,241.832474 396.784943,240.052795 
	C402.498505,237.911301 408.076813,235.400635 413.670319,232.950790 
	C416.187256,231.848389 418.498505,230.205536 421.081512,229.341064 
	C425.193176,227.964996 424.251343,225.506760 423.123749,222.653931 
	C422.223480,220.376266 421.679016,217.960754 420.864044,215.646057 
	C418.662170,209.391922 416.469269,203.133057 414.143433,196.924545 
	C411.605713,190.150406 408.922729,183.430664 406.435913,176.332428 
	C406.757568,175.969330 406.946350,175.961060 407.135132,175.952774 
	C411.438232,184.422516 416.640442,192.572372 419.798645,201.449448 
	C423.142334,210.847885 424.541809,220.938049 426.570984,231.098846 
	C424.126190,232.445786 421.875580,233.366318 419.679565,234.402481 
	C399.051697,244.135345 377.482910,251.049332 355.210236,255.494659 
	C355.120087,252.200272 355.010406,249.375092 355.016449,246.550125 
	C355.044342,233.525986 350.483887,221.881653 343.942047,210.959213 
	C337.835480,200.763458 329.070831,193.120361 319.173828,186.703979 
	C309.672821,180.544342 299.064819,177.000488 288.003082,176.158783 
	C267.757263,174.618240 248.789566,178.764877 232.658463,192.138046 
	C230.552277,193.884125 228.271591,195.419693 226.071732,197.052780 
z"/>
<path fill="#D02F36" opacity="1.000000" stroke="none" 
	d="
M407.071472,175.598938 
	C406.946350,175.961060 406.757568,175.969330 406.285583,175.988419 
	C401.992462,171.117889 398.001221,166.221054 393.966431,161.360382 
	C391.026947,157.819275 388.113037,154.251114 385.034760,150.832733 
	C382.103638,147.577744 378.979736,144.495926 375.927582,141.350616 
	C375.246704,140.649017 374.603821,139.849228 373.787354,139.349808 
	C362.953278,132.722916 352.294525,125.772743 341.180542,119.650177 
	C329.520782,113.226967 316.528381,109.828468 303.631195,107.460381 
	C293.692352,105.635490 283.191956,106.851921 272.940857,106.754517 
	C269.663300,106.723381 266.349762,106.523804 263.113373,106.909882 
	C255.685822,107.795952 247.992935,108.047264 240.962219,110.292465 
	C230.805878,113.535812 221.129684,118.291008 211.273926,122.460938 
	C208.992798,123.426079 206.813965,124.632996 204.096313,125.984116 
	C203.393570,126.399368 203.231033,126.598656 203.116943,126.837448 
	C203.116943,126.837448 202.985077,126.946327 202.655823,127.031464 
	C201.885330,127.407860 201.444107,127.699127 201.002869,127.990387 
	C200.559082,127.997124 200.115311,128.003860 199.338776,128.003418 
	C203.641617,124.967850 208.031540,121.433395 212.972855,119.034874 
	C219.650192,115.793694 226.661484,113.162735 233.696564,110.758965 
	C240.255844,108.517746 246.928391,106.102478 253.739670,105.220917 
	C264.383453,103.843323 275.190369,103.133911 285.920563,103.210365 
	C293.938629,103.267487 302.009552,104.650146 309.943115,106.075783 
	C328.447479,109.400955 345.147217,117.409859 361.076508,127.045769 
	C365.948181,129.992737 370.334656,133.782852 374.774261,137.394653 
	C384.733765,145.497116 393.347900,154.902206 400.854462,165.296738 
	C403.131470,168.449722 404.968994,171.920090 407.071472,175.598938 
z"/>
<path fill="#1B1766" opacity="1.000000" stroke="none" 
	d="
M132.987122,269.014648 
	C133.004166,271.460480 133.035706,273.906342 133.036194,276.352173 
	C133.051132,352.251099 133.063034,428.150024 133.113098,504.866211 
	C133.456314,506.810638 133.761871,507.937805 134.067413,509.064972 
	C134.067413,509.064972 134.005478,509.022949 133.732666,509.126770 
	C132.670181,509.483063 131.880508,509.735565 131.051941,509.521576 
	C131.025467,432.031067 131.037888,355.007050 131.050293,277.983032 
	C131.050293,277.983032 131.023087,277.486511 131.285370,276.922272 
	C131.721298,273.914520 131.894943,271.470978 132.298218,269.024384 
	C132.527847,269.021301 132.987122,269.014648 132.987122,269.014648 
z"/>
<path fill="#312E7B" opacity="1.000000" stroke="none" 
	d="
M328.340393,389.952271 
	C337.360199,384.907684 347.252594,380.740784 355.922272,374.791901 
	C366.247223,367.707306 376.254181,359.816711 385.039978,350.931580 
	C393.205750,342.673462 399.857788,332.842194 406.619965,323.308929 
	C409.439697,319.333740 410.644043,314.245178 412.947723,309.854248 
	C413.774414,308.278564 415.673096,307.265350 417.464417,305.982483 
	C413.260773,316.674957 408.425171,327.075745 401.497406,336.722076 
	C393.061096,348.468964 383.221893,358.906921 372.241974,367.719086 
	C362.293732,375.703308 350.009888,380.821808 338.598267,386.908417 
	C335.588623,388.513641 331.996399,389.026581 328.340393,389.952271 
z"/>
<path fill="#D13336" opacity="1.000000" stroke="none" 
	d="
M429.358032,123.992226 
	C429.039032,123.663094 429.021423,123.178764 428.991455,122.330498 
	C432.476349,118.347313 435.775574,114.506599 439.516785,111.160057 
	C445.308838,105.979065 446.000397,102.541473 440.375702,97.018921 
	C431.789551,88.588593 423.041290,80.242332 413.678101,72.710365 
	C406.299469,66.774811 398.300812,61.289703 389.836090,57.103893 
	C378.720520,51.607227 366.857605,47.629631 355.364624,42.881313 
	C353.317932,42.035740 351.507294,40.618969 349.661743,39.230370 
	C350.199585,38.976383 350.663330,38.957973 351.127045,38.939564 
	C358.513275,41.432983 365.954315,43.777729 373.265961,46.473438 
	C377.941650,48.197311 382.465118,50.356606 386.983612,52.476814 
	C390.438232,54.097870 394.078613,55.556122 397.114197,57.794838 
	C407.330322,65.329155 417.169189,73.377541 427.429443,80.848724 
	C436.026703,87.108971 441.419373,96.116707 448.182526,103.941277 
	C448.797394,104.652611 448.288086,107.356178 447.408112,108.173607 
	C441.628784,113.542099 435.604065,118.646461 429.358032,123.992226 
z"/>
<path fill="#9D2958" opacity="1.000000" stroke="none" 
	d="
M199.080017,252.805939 
	C199.493225,252.825180 199.906448,252.844406 200.986542,252.915833 
	C202.370865,252.985428 203.088303,253.002823 203.869476,253.387543 
	C203.863373,254.745483 203.793488,255.736115 203.363953,256.738037 
	C202.281586,256.803925 201.558868,256.858521 200.836136,256.913116 
	C179.261749,251.237930 157.867584,245.045166 137.310913,234.651016 
	C135.586273,233.567963 134.375153,232.806259 133.164032,232.044571 
	C133.116913,231.267731 133.069794,230.490875 133.354034,229.476013 
	C134.458710,229.491394 135.232025,229.744812 136.005341,229.998230 
	C139.916809,231.662643 143.861359,233.253983 147.732498,235.007446 
	C154.714218,238.169861 161.563324,241.645355 168.647385,244.552536 
	C171.944107,245.905441 175.703857,246.082642 179.177826,247.062027 
	C184.565887,248.581009 189.889038,250.330292 195.865265,252.228134 
	C197.353882,252.584869 198.216949,252.695419 199.080017,252.805939 
z"/>
<path fill="#32307D" opacity="1.000000" stroke="none" 
	d="
M316.411194,469.895905 
	C316.232880,466.623688 317.443848,465.163391 321.142639,465.665863 
	C323.757690,466.021118 326.633270,465.218231 329.272827,464.495331 
	C338.099457,462.078094 347.002716,459.835754 355.624207,456.807739 
	C362.450989,454.410095 368.987213,451.119476 375.499268,447.914154 
	C379.895935,445.750061 383.981293,442.961151 388.307159,440.640411 
	C389.400055,440.054047 390.880524,440.190063 392.993958,439.997559 
	C394.623779,440.036011 395.442474,440.071075 396.261200,440.106140 
	C382.194763,449.035065 367.048126,455.959503 351.542084,461.679199 
	C340.464661,465.765350 328.442627,467.290558 316.411194,469.895905 
z"/>
<path fill="#26206F" opacity="1.000000" stroke="none" 
	d="
M355.244019,255.963943 
	C377.482910,251.049332 399.051697,244.135345 419.679565,234.402481 
	C421.875580,233.366318 424.126190,232.445786 426.663940,231.468124 
	C427.000397,231.669876 427.024384,231.875107 427.003693,232.735672 
	C426.934296,233.620285 426.909515,233.849564 426.677917,234.285095 
	C426.265381,235.043472 426.059631,235.595642 425.853882,236.147812 
	C420.887024,237.770813 415.856384,239.224365 410.970123,241.061783 
	C405.448029,243.138275 400.027283,245.494247 394.612885,247.844925 
	C384.369446,252.292221 373.499146,254.226776 362.601410,256.153992 
	C359.220032,256.751953 357.939423,259.096497 357.851959,262.688690 
	C357.760773,266.431519 358.196320,270.788879 353.458069,272.460083 
	C353.944000,266.717468 354.594025,261.340698 355.244019,255.963943 
z"/>
<path fill="#35337F" opacity="1.000000" stroke="none" 
	d="
M391.012146,376.005188 
	C386.836578,380.085052 383.110138,384.808411 378.387604,388.104584 
	C369.783600,394.110016 360.899628,399.890106 351.537445,404.575195 
	C344.623077,408.035278 336.793945,409.706665 329.311096,411.972565 
	C326.211578,412.911133 322.952148,413.321564 319.323364,413.958740 
	C321.533325,412.588318 324.112427,411.057678 326.851440,409.907806 
	C334.378937,406.747498 341.971863,403.742920 349.542969,400.686798 
	C350.893402,400.141693 352.306396,399.735382 353.617462,399.111542 
	C365.806458,393.311707 377.392548,386.622833 386.762939,376.645477 
	C387.389343,375.978485 388.485260,375.752472 389.837036,375.415405 
	C390.515045,375.716980 390.748657,375.882233 391.012146,376.005188 
z"/>
<path fill="#35337F" opacity="1.000000" stroke="none" 
	d="
M134.415100,509.231262 
	C133.761871,507.937805 133.456314,506.810638 133.132767,505.333374 
	C136.994675,502.903992 141.036713,501.075562 144.721359,498.694122 
	C152.826248,493.455933 160.780441,487.981689 168.726410,482.502655 
	C170.584122,481.221680 172.062546,479.399139 173.889069,478.063080 
	C181.652206,472.384583 189.480606,466.795380 197.861206,461.308899 
	C199.308197,461.651215 200.179138,461.858124 201.050079,462.065033 
	C193.803940,467.338837 186.564163,472.621368 179.310074,477.884186 
	C170.131927,484.542908 160.982712,491.242584 151.742188,497.813782 
	C146.159668,501.783691 140.427658,505.543427 134.415100,509.231262 
z"/>
<path fill="#D12E34" opacity="1.000000" stroke="none" 
	d="
M188.016235,137.007446 
	C184.515106,140.657333 181.241760,144.564774 177.465775,147.903839 
	C169.433441,155.006729 163.636200,163.709656 158.301025,172.862244 
	C154.836456,178.805771 150.872925,184.456497 147.270477,190.322861 
	C146.274033,191.945511 145.936188,193.964813 144.991852,195.629471 
	C144.099411,197.202621 142.807007,198.548843 141.318481,200.037750 
	C142.404541,189.756500 148.414886,181.508179 153.556381,172.919968 
	C161.186371,160.175018 171.637207,149.686951 181.704666,138.926682 
	C182.875153,137.675659 184.759567,137.092590 186.772034,136.261902 
	C187.492783,136.551773 187.754501,136.779617 188.016235,137.007446 
z"/>
<path fill="#AEAFD9" opacity="1.000000" stroke="none" 
	d="
M130.643814,278.160065 
	C131.037888,355.007050 131.025467,432.031067 130.961578,509.746490 
	C130.910110,510.437897 130.847168,510.918823 130.847168,510.918823 
	C130.566971,509.545532 130.042175,508.172363 130.041595,506.798981 
	C130.010239,431.136810 130.022415,355.474670 130.039444,279.812500 
	C130.039551,279.320709 130.168533,278.828888 130.643814,278.160065 
z"/>
<path fill="#332F7A" opacity="1.000000" stroke="none" 
	d="
M396.550293,439.928406 
	C395.442474,440.071075 394.623779,440.036011 393.395050,439.995483 
	C410.770721,426.205536 428.556366,412.421021 446.594543,398.440826 
	C444.572906,395.392181 443.340393,393.533569 442.071594,391.016785 
	C442.052002,390.146973 442.068726,389.935425 442.085449,389.723846 
	C444.757355,391.837769 447.429260,393.951721 450.636566,396.489288 
	C449.357208,398.213989 448.554230,399.825195 447.296021,400.906799 
	C439.193420,407.872162 431.202515,414.994873 422.757202,421.525787 
	C415.548615,427.100220 407.774811,431.942902 400.265564,437.130341 
	C399.083954,437.946533 397.979523,438.874451 396.550293,439.928406 
z"/>
<path fill="#373480" opacity="1.000000" stroke="none" 
	d="
M79.048462,341.992310 
	C82.319054,348.043243 85.359406,354.233490 88.916786,360.110809 
	C93.680717,367.981567 98.786980,375.648346 103.863274,383.325317 
	C106.203278,386.864166 108.820953,390.219421 111.867180,393.865112 
	C112.604187,394.085876 112.786728,394.099518 112.934601,394.498840 
	C112.621170,396.460297 112.342422,398.036133 112.063675,399.611969 
	C97.132744,383.034973 85.796761,364.198456 77.190117,343.292175 
	C77.954369,342.531738 78.501411,342.262024 79.048462,341.992310 
z"/>
<path fill="#282479" opacity="1.000000" stroke="none" 
	d="
M243.147827,394.471924 
	C246.711792,393.708130 250.481171,392.433594 253.988327,395.340240 
	C255.027893,396.201813 256.791748,396.539307 258.219330,396.528625 
	C272.119232,396.424988 286.030365,396.468140 299.910461,395.847137 
	C304.405487,395.645996 308.776276,393.388092 313.291107,392.529663 
	C314.951935,392.213837 316.864410,393.221344 318.869751,393.958679 
	C302.342255,399.752838 285.027954,399.307251 267.801392,398.877594 
	C260.328979,398.691254 252.890884,397.011871 245.448212,395.934601 
	C244.706482,395.827271 244.041534,395.189545 243.147827,394.471924 
z"/>
<path fill="#26206F" opacity="1.000000" stroke="none" 
	d="
M112.343437,399.807434 
	C112.342422,398.036133 112.621170,396.460297 112.944923,394.017578 
	C112.988495,338.470032 112.987061,283.789368 112.985626,229.108734 
	C112.991241,228.000137 112.996857,226.891541 113.008759,225.366364 
	C113.778107,225.024658 114.541176,225.099533 115.579529,225.260376 
	C115.556656,228.348801 115.258499,231.351242 114.636589,235.095428 
	C114.211861,236.824280 114.022659,237.811401 114.022545,238.798538 
	C114.016861,289.325867 114.021210,339.853180 114.071999,390.380463 
	C114.073227,391.602478 114.611183,392.824005 114.898796,394.045746 
	C114.263046,396.078369 116.917610,399.367859 112.343437,399.807434 
z"/>
<path fill="#25216D" opacity="1.000000" stroke="none" 
	d="
M223.665070,408.073212 
	C221.606552,418.129852 222.039261,428.218414 222.528488,438.355469 
	C222.869019,445.411346 222.507492,452.499054 222.564728,459.571716 
	C222.585388,462.122711 222.912506,464.671265 223.065979,467.559998 
	C219.803619,467.233490 218.895432,464.954315 219.003143,462.022736 
	C219.313568,453.573914 219.896942,445.126221 219.902939,436.677704 
	C219.908569,428.738342 219.301544,420.799072 218.995163,412.858551 
	C218.925858,411.062561 218.984970,409.261627 218.984970,406.965057 
	C220.820923,407.401733 222.048843,407.693787 223.665070,408.073212 
z"/>
<path fill="#2E2C79" opacity="1.000000" stroke="none" 
	d="
M78.973045,341.628906 
	C78.501411,342.262024 77.954369,342.531738 77.127739,342.922821 
	C72.581451,331.950073 67.954979,320.976776 64.174034,309.719482 
	C61.635525,302.161407 60.294754,294.201050 58.652840,286.186951 
	C61.718876,286.798401 62.460781,288.622345 63.216290,291.597260 
	C65.482292,300.520081 66.239143,309.836060 70.848221,318.232544 
	C73.453941,322.979462 74.218605,328.722015 75.948257,333.971405 
	C76.767197,336.456848 77.904541,338.837402 78.973045,341.628906 
z"/>
<path fill="#1B1766" opacity="1.000000" stroke="none" 
	d="
M201.029358,462.041656 
	C200.179138,461.858124 199.308197,461.651215 198.182251,461.219421 
	C198.288391,458.730713 198.956726,456.467804 198.963364,454.202881 
	C199.032684,430.567444 198.960571,406.931488 199.065521,383.296295 
	C199.072723,381.676178 197.464905,378.608398 201.723251,378.913055 
	C202.008438,379.517151 201.973434,379.982910 201.615219,381.090027 
	C201.193924,384.051819 201.012985,386.372223 201.010483,388.692780 
	C200.984070,413.153107 200.986130,437.613464 200.980316,462.073792 
	C200.980316,462.073792 201.008621,462.018280 201.029358,462.041656 
z"/>
<path fill="#A59FD7" opacity="1.000000" stroke="none" 
	d="
M114.939255,393.571136 
	C114.611183,392.824005 114.073227,391.602478 114.071999,390.380463 
	C114.021210,339.853180 114.016861,289.325867 114.022545,238.798538 
	C114.022659,237.811401 114.211861,236.824280 114.569946,235.529175 
	C114.887062,256.536316 114.982666,277.851410 114.998672,299.166565 
	C115.022194,330.476532 114.988831,361.786530 114.939255,393.571136 
z"/>
<path fill="#D13336" opacity="1.000000" stroke="none" 
	d="
M211.015961,39.059723 
	C208.857178,40.090050 206.714417,41.155632 204.536957,42.144848 
	C192.368332,47.673035 180.190659,53.181274 168.017746,58.700054 
	C165.601181,59.795647 163.191971,60.907444 160.369446,61.988052 
	C163.750824,59.413414 167.358124,56.514767 171.374695,54.389595 
	C178.119019,50.821175 185.045670,47.565235 192.045654,44.523045 
	C196.944183,42.394135 202.092651,40.840275 207.897736,39.004093 
	C209.449310,39.005638 210.232635,39.032681 211.015961,39.059723 
z"/>
<path fill="#CA3536" opacity="1.000000" stroke="none" 
	d="
M211.460052,39.047844 
	C210.232635,39.032681 209.449310,39.005638 208.274445,38.965626 
	C215.356064,36.951920 222.771790,34.692280 230.317535,33.018898 
	C238.885086,31.118916 247.568939,29.743437 256.743713,28.404495 
	C257.536682,29.070486 257.788116,29.471928 257.833496,30.040676 
	C257.421814,30.492643 257.216187,30.777304 257.010590,31.061962 
	C256.080078,31.354416 255.168930,31.781054 254.216049,31.918623 
	C244.381668,33.338463 234.523270,34.601986 224.709244,36.148216 
	C220.396286,36.827740 216.169846,38.056557 211.460052,39.047844 
z"/>
<path fill="#282479" opacity="1.000000" stroke="none" 
	d="
M65.658905,197.884048 
	C67.108841,198.565979 68.201233,199.372025 69.457199,200.493896 
	C66.015625,201.052917 63.967579,201.940109 64.726501,206.580719 
	C65.239403,209.716980 63.528542,213.181396 63.011726,216.529785 
	C62.198112,221.801163 61.592228,227.104538 60.788982,232.377686 
	C60.678425,233.103470 59.940968,233.733765 59.033077,234.554001 
	C58.357635,234.431503 58.142872,234.163269 57.928108,233.895035 
	C59.337566,223.485474 60.638008,213.058792 62.266747,202.683655 
	C62.529850,201.007675 64.253075,199.560898 65.658905,197.884048 
z"/>
<path fill="#26206F" opacity="1.000000" stroke="none" 
	d="
M57.643288,234.207550 
	C58.142872,234.163269 58.357635,234.431503 58.783173,234.849167 
	C59.242474,246.447906 59.516388,257.896790 59.704533,269.347107 
	C59.725895,270.647217 59.265167,271.955200 59.010300,274.089294 
	C59.036549,276.941071 59.080482,278.963043 59.124413,280.985046 
	C59.124413,280.985046 59.100113,281.037079 59.075386,281.023865 
	C58.369221,277.494080 57.489868,274.001770 57.055828,270.454926 
	C56.497704,265.894012 55.927490,261.281433 56.026207,256.705414 
	C56.185867,249.304169 56.886360,241.914597 57.643288,234.207550 
z"/>
<path fill="#373480" opacity="1.000000" stroke="none" 
	d="
M414.240265,366.282410 
	C413.091278,366.308624 411.449799,366.431152 410.685669,365.671356 
	C406.214233,361.225220 404.037506,364.484222 401.816589,368.041687 
	C399.459778,371.816772 396.374939,374.557373 391.313171,374.944397 
	C394.815735,370.445465 398.685822,365.934540 402.595551,361.458221 
	C404.870514,358.853546 407.200714,358.058777 409.751556,361.235107 
	C411.097504,362.911102 412.678314,364.398529 414.240265,366.282410 
z"/>
<path fill="#837FB6" opacity="1.000000" stroke="none" 
	d="
M201.364929,461.858795 
	C200.986130,437.613464 200.984070,413.153107 201.010483,388.692780 
	C201.012985,386.372223 201.193924,384.051819 201.575562,381.438171 
	C201.822586,407.977936 201.786072,434.810883 201.364929,461.858795 
z"/>
<path fill="#D12E34" opacity="1.000000" stroke="none" 
	d="
M136.031677,229.582611 
	C135.232025,229.744812 134.458710,229.491394 133.411819,229.090546 
	C134.853241,221.093262 136.524399,213.233185 138.347473,205.408508 
	C138.541168,204.577133 139.624512,203.953033 140.618195,203.072174 
	C140.449814,205.650131 139.975098,208.391830 139.463501,211.126633 
	C138.338242,217.141937 137.194336,223.153763 136.031677,229.582611 
z"/>
<path fill="#25216D" opacity="1.000000" stroke="none" 
	d="
M257.267822,473.406982 
	C258.095398,472.483704 259.217834,471.314392 260.327240,471.326569 
	C267.871185,471.409515 275.414185,471.701752 282.951965,472.047150 
	C283.818085,472.086823 284.650055,472.871368 285.737610,473.616455 
	C281.240631,474.276337 276.501587,474.934692 271.767853,474.898682 
	C267.028046,474.862701 262.293518,474.133179 257.267822,473.406982 
z"/>
<path fill="#282479" opacity="1.000000" stroke="none" 
	d="
M133.092743,268.646881 
	C132.987122,269.014648 132.527847,269.021301 132.066010,269.008759 
	C131.604187,268.996216 131.141129,268.969818 131.141129,268.969818 
	C131.092957,263.828552 130.890121,258.682281 131.054932,253.547867 
	C131.152939,250.495209 131.829575,247.461136 132.771545,244.354462 
	C133.534012,244.849716 133.770950,245.409225 134.007904,245.968719 
	C134.339447,251.267288 134.876724,256.564880 134.901749,261.864929 
	C134.911819,264.000244 133.799728,266.140900 133.092743,268.646881 
z"/>
<path fill="#CA3536" opacity="1.000000" stroke="none" 
	d="
M350.903076,38.631985 
	C350.663330,38.957973 350.199585,38.976383 349.388855,39.008133 
	C340.870789,37.603748 332.683960,36.266117 324.549286,34.663776 
	C323.566956,34.470284 322.866486,32.845840 321.915161,31.528528 
	C331.423004,33.556431 341.051025,35.940414 350.903076,38.631985 
z"/>
<path fill="#232376" opacity="1.000000" stroke="none" 
	d="
M269.727478,417.599670 
	C261.312073,420.796234 252.839890,418.107971 244.309509,416.761780 
	C244.435928,416.053345 244.562347,415.344910 244.824829,414.373535 
	C249.203506,414.733917 253.439713,415.405975 257.690674,415.966309 
	C261.594727,416.480927 265.514648,416.875244 269.727478,417.599670 
z"/>
<path fill="#FFA9A4" opacity="1.000000" stroke="none" 
	d="
M260.991821,27.177141 
	C273.221130,27.189756 285.450409,27.202372 297.608459,27.656841 
	C297.371429,28.138771 297.205658,28.178848 296.611572,28.136070 
	C293.645203,28.211216 291.107117,28.369213 288.277771,28.491047 
	C286.857269,28.550320 285.727936,28.645758 284.371094,28.530285 
	C283.059814,28.317896 281.976013,28.316418 280.504883,28.277056 
	C276.969604,28.430918 273.821686,28.622663 270.477234,28.589602 
	C268.959320,28.517540 267.637909,28.670286 266.142731,28.753582 
	C265.672974,28.710876 265.516449,28.872087 265.412231,28.835812 
	C263.880646,28.061621 262.436218,27.619381 260.991821,27.177141 
z"/>
<path fill="#D13336" opacity="1.000000" stroke="none" 
	d="
M145.214050,73.764511 
	C144.303131,73.864845 143.680756,73.736992 143.009186,73.385658 
	C148.389511,69.436096 153.819077,65.710014 159.608978,61.967934 
	C156.706238,67.760506 151.710541,71.405342 145.214050,73.764511 
z"/>
<path fill="#CA3536" opacity="1.000000" stroke="none" 
	d="
M297.039856,28.218924 
	C297.205658,28.178848 297.371429,28.138771 297.790314,28.060883 
	C305.130737,29.027168 312.218048,30.031261 319.644775,31.138462 
	C316.160980,31.320946 312.337860,31.400322 308.117737,31.049282 
	C307.430450,30.450787 307.140167,30.282711 306.849884,30.114632 
	C306.165100,30.103451 305.480347,30.092272 304.029541,30.053997 
	C301.164856,29.722609 299.066193,29.418320 296.987579,28.890415 
	C297.007660,28.666801 297.039856,28.218924 297.039856,28.218924 
z"/>
<path fill="#2E2C79" opacity="1.000000" stroke="none" 
	d="
M441.917603,389.444031 
	C442.068726,389.935425 442.052002,390.146973 442.015808,390.676208 
	C441.188141,390.879974 440.108154,391.061005 439.614410,390.605957 
	C435.383972,386.706848 431.259674,382.692627 427.321808,378.352234 
	C427.723145,377.985870 427.906311,377.980011 428.089447,377.974182 
	C432.642883,381.704193 437.196350,385.434204 441.917603,389.444031 
z"/>
<path fill="#373480" opacity="1.000000" stroke="none" 
	d="
M427.944519,377.661987 
	C427.906311,377.980011 427.723145,377.985870 427.265106,378.000122 
	C422.754333,374.470673 418.518433,370.932800 414.328644,367.039734 
	C418.849701,370.239594 423.324615,373.794708 427.944519,377.661987 
z"/>
<path fill="#151677" opacity="1.000000" stroke="none" 
	d="
M300.459839,416.004547 
	C301.997528,416.604706 303.108215,417.202972 304.218903,417.801239 
	C304.177826,418.266998 304.136749,418.732758 304.095673,419.198486 
	C299.827881,418.773407 295.560120,418.348328 291.128448,417.579651 
	C293.987335,416.824951 297.010071,416.413788 300.459839,416.004547 
z"/>
<path fill="#55528E" opacity="1.000000" stroke="none" 
	d="
M426.884735,234.078857 
	C426.909515,233.849564 426.934296,233.620285 426.979919,233.044693 
	C427.318115,233.243195 427.913147,233.788681 427.911774,234.332687 
	C427.884155,245.383835 427.788239,256.434814 427.378662,267.730957 
	C427.051300,267.976105 427.041107,267.929474 427.020691,267.466248 
	C426.961761,256.028320 426.923248,245.053589 426.884735,234.078857 
z"/>
<path fill="#26206F" opacity="1.000000" stroke="none" 
	d="
M134.253845,245.651733 
	C133.770950,245.409225 133.534012,244.849716 133.058228,244.092041 
	C132.898834,240.231171 132.978271,236.568466 133.110870,232.475159 
	C134.375153,232.806259 135.586273,233.567963 136.954193,234.604614 
	C136.403275,236.463959 135.454941,237.989960 135.052216,239.648422 
	C134.607330,241.480530 134.662460,243.434082 134.253845,245.651733 
z"/>
<path fill="#D02F36" opacity="1.000000" stroke="none" 
	d="
M197.792877,128.142151 
	C197.455750,131.385071 195.348145,132.652740 191.904678,132.453033 
	C193.504791,130.879425 195.468018,129.468185 197.792877,128.142151 
z"/>
<path fill="#26206F" opacity="1.000000" stroke="none" 
	d="
M425.407349,275.912140 
	C425.176697,273.532562 425.279602,270.950226 425.936951,268.165100 
	C426.674622,267.951416 426.857849,267.940430 427.041107,267.929474 
	C427.041107,267.929474 427.051300,267.976105 427.027527,267.974487 
	C426.582794,270.551666 426.161835,273.130524 425.407349,275.912140 
z"/>
<path fill="#C74246" opacity="1.000000" stroke="none" 
	d="
M260.650665,27.237129 
	C262.436218,27.619381 263.880646,28.061621 265.054871,29.027813 
	C262.536316,29.658964 260.287964,29.766167 258.039581,29.873367 
	C257.788116,29.471928 257.536682,29.070486 257.160095,28.467445 
	C258.126465,27.942934 259.217987,27.620024 260.650665,27.237129 
z"/>
<path fill="#D02F36" opacity="1.000000" stroke="none" 
	d="
M188.250702,136.761505 
	C187.754501,136.779617 187.492783,136.551773 187.089722,136.104156 
	C188.225800,134.876587 189.503189,133.868774 191.032593,132.699371 
	C190.351456,133.863693 189.418320,135.189636 188.250702,136.761505 
z"/>
<path fill="#2C296C" opacity="1.000000" stroke="none" 
	d="
M131.082184,269.413208 
	C131.141129,268.969818 131.604187,268.996216 131.836380,269.011841 
	C131.894943,271.470978 131.721298,273.914520 131.314728,276.675385 
	C131.062271,274.614014 131.042755,272.235291 131.082184,269.413208 
z"/>
<path fill="#35337F" opacity="1.000000" stroke="none" 
	d="
M131.069183,511.162964 
	C130.847168,510.918823 130.910110,510.437897 131.000488,510.212982 
	C131.880508,509.735565 132.670181,509.483063 133.762512,509.143005 
	C133.140503,509.839355 132.215851,510.623230 131.069183,511.162964 
z"/>
<path fill="#373480" opacity="1.000000" stroke="none" 
	d="
M390.998718,375.734009 
	C390.748657,375.882233 390.515045,375.716980 390.176819,375.341461 
	C390.042358,375.173492 390.481842,375.015594 390.710449,374.968628 
	C390.954468,375.101990 390.969879,375.282379 390.998718,375.734009 
z"/>
<path fill="#000000" opacity="1.000000" stroke="none" 
	d="
M355.210266,255.494659 
	C354.594025,261.340698 353.944000,266.717468 353.081604,272.421997 
	C352.869202,272.749725 352.797089,272.810852 352.481262,273.021820 
	C351.335815,276.344025 350.506226,279.455261 349.676605,282.566498 
	C349.676605,282.566498 349.548798,282.549744 349.188232,282.681763 
	C344.027435,290.135681 339.980408,298.136383 334.187897,304.563995 
	C329.577179,309.680298 323.098663,313.345581 316.963623,316.789825 
	C310.980927,320.148499 304.381958,322.409393 297.644318,325.118164 
	C286.437408,327.699158 275.623505,329.130157 264.628601,326.084106 
	C261.172028,325.126495 257.597626,324.594269 253.887405,323.558685 
	C242.129211,318.710022 232.300232,311.700287 224.052780,302.426117 
	C221.774429,299.864136 219.417236,297.372314 217.096222,294.848297 
	C213.942963,288.338196 210.789703,281.828125 207.338531,274.682983 
	C205.934952,268.274200 204.829285,262.500488 203.723602,256.726746 
	C203.793488,255.736115 203.863373,254.745483 203.929138,252.931061 
	C204.289780,248.018784 204.449921,243.899551 205.058792,239.847748 
	C206.688370,229.003464 210.407578,218.982605 217.056473,210.113464 
	C220.221573,205.891449 223.065292,201.428528 226.054626,197.074738 
	C226.054626,197.074738 226.048676,197.055786 226.060196,197.054276 
	C228.271591,195.419693 230.552277,193.884125 232.658463,192.138046 
	C248.789566,178.764877 267.757263,174.618240 288.003082,176.158783 
	C299.064819,177.000488 309.672821,180.544342 319.173828,186.703979 
	C329.070831,193.120361 337.835480,200.763458 343.942047,210.959213 
	C350.483887,221.881653 355.044342,233.525986 355.016449,246.550125 
	C355.010406,249.375092 355.120087,252.200272 355.210266,255.494659 
z"/>
<path fill="#32307D" opacity="1.000000" stroke="none" 
	d="
M298.053558,325.152252 
	C304.381958,322.409393 310.980927,320.148499 316.963623,316.789825 
	C323.098663,313.345581 329.577179,309.680298 334.187897,304.563995 
	C339.980408,298.136383 344.027435,290.135681 349.153931,282.736328 
	C349.252991,284.377075 349.402710,286.259521 348.737213,287.786713 
	C344.601105,297.278442 338.950195,305.716034 330.171631,311.526306 
	C323.101593,316.205780 315.910370,320.748047 308.472137,324.798828 
	C306.078644,326.102325 302.727600,325.647491 299.227051,325.893707 
	C298.397400,325.620636 298.202057,325.407928 298.053558,325.152252 
z"/>
<path fill="#2E2C79" opacity="1.000000" stroke="none" 
	d="
M216.963287,295.154602 
	C219.417236,297.372314 221.774429,299.864136 224.052780,302.426117 
	C232.300232,311.700287 242.129211,318.710022 253.865982,323.844299 
	C254.024094,324.629181 254.013855,324.819794 254.003601,325.010437 
	C246.971710,325.729767 242.136032,320.839050 237.332825,317.322968 
	C230.268478,312.151642 224.308411,305.453430 218.023331,299.258118 
	C217.188858,298.435547 217.207047,296.747925 216.963287,295.154602 
z"/>
<path fill="#232376" opacity="1.000000" stroke="none" 
	d="
M254.279434,325.249329 
	C254.013855,324.819794 254.024094,324.629181 254.055740,324.152954 
	C257.597626,324.594269 261.172028,325.126495 264.628601,326.084106 
	C275.623505,329.130157 286.437408,327.699158 297.644318,325.118164 
	C298.202057,325.407928 298.397400,325.620636 298.829529,325.898376 
	C295.681488,327.330261 292.418549,329.524109 288.991730,329.820007 
	C277.270782,330.832062 265.695068,329.621063 254.279434,325.249329 
z"/>
<path fill="#25216D" opacity="1.000000" stroke="none" 
	d="
M203.363968,256.738037 
	C204.829285,262.500488 205.934952,268.274200 207.047607,274.455139 
	C206.387466,274.612122 205.235214,274.493378 205.126434,274.091888 
	C203.655258,268.662598 202.329102,263.194000 200.901611,257.324127 
	C201.558868,256.858521 202.281586,256.803925 203.363968,256.738037 
z"/>
<path fill="#1B1766" opacity="1.000000" stroke="none" 
	d="
M427.020691,267.466248 
	C426.857849,267.940430 426.674622,267.951416 426.215515,267.971558 
	C425.922089,257.671814 425.904510,247.362930 425.870422,236.600922 
	C426.059631,235.595642 426.265381,235.043472 426.677917,234.285095 
	C426.923248,245.053589 426.961761,256.028320 427.020691,267.466248 
z"/>
<path fill="#32307D" opacity="1.000000" stroke="none" 
	d="
M350.037720,282.617523 
	C350.506226,279.455261 351.335815,276.344025 352.496643,273.066528 
	C353.958923,276.638947 353.745239,280.043274 350.037720,282.617523 
z"/>
<path fill="#CB161B" opacity="1.000000" stroke="none" 
	d="
M257.833496,30.040676 
	C260.287964,29.766167 262.536316,29.658964 265.142029,29.359764 
	C265.516449,28.872087 265.672974,28.710876 266.654602,29.060366 
	C268.451416,29.229202 269.562561,29.021807 270.673737,28.814407 
	C273.821686,28.622663 276.969604,28.430918 280.681793,28.604887 
	C282.363556,28.894133 283.481110,28.817663 284.598633,28.741196 
	C285.727936,28.645758 286.857269,28.550320 288.738831,28.642336 
	C291.983246,28.924536 294.475372,29.019283 296.967499,29.114031 
	C299.066193,29.418320 301.164856,29.722609 303.687103,30.053932 
	C300.220062,30.393526 296.332001,30.933022 292.438446,30.975922 
	C280.942108,31.102598 269.443573,31.032835 257.478271,31.050945 
	C257.216187,30.777304 257.421814,30.492643 257.833496,30.040676 
z"/>
<path fill="#D32A32" opacity="1.000000" stroke="none" 
	d="
M74.267670,194.334900 
	C73.950302,194.272659 73.759064,194.092758 73.567825,193.912857 
	C73.676071,193.812271 73.784325,193.711700 73.892578,193.611130 
	C74.059654,193.813171 74.226723,194.015228 74.267670,194.334900 
z"/>
<path fill="#D32A32" opacity="1.000000" stroke="none" 
	d="
M130.998474,167.001068 
	C130.996948,167.002151 130.715866,166.823502 130.715866,166.823502 
	C130.715866,166.823502 130.915161,166.841843 130.958633,166.919388 
	C131.002106,166.996933 131.000000,167.000000 130.998474,167.001068 
z"/>
<path fill="#CB161B" opacity="1.000000" stroke="none" 
	d="
M307.015869,30.299429 
	C307.140167,30.282711 307.430450,30.450787 307.857483,30.834538 
	C307.693542,30.904474 307.422729,30.715813 307.015869,30.299429 
z"/>
<path fill="#C92937" opacity="1.000000" stroke="none" 
	d="
M225.702438,197.115784 
	C223.065292,201.428528 220.221573,205.891449 217.056473,210.113464 
	C210.407578,218.982605 206.688370,229.003464 205.058792,239.847748 
	C204.449921,243.899551 204.289780,248.018784 203.865372,252.563751 
	C203.088303,253.002823 202.370865,252.985428 201.296860,252.915558 
	C201.093262,238.911057 204.843826,226.046707 211.289200,213.622421 
	C214.808945,206.837631 218.627731,200.920624 225.702438,197.115784 
z"/>
<path fill="#C92937" opacity="1.000000" stroke="none" 
	d="
M198.981705,252.527359 
	C198.216949,252.695419 197.353882,252.584869 196.245972,252.251053 
	C196.961899,252.101440 197.922638,252.175110 198.981705,252.527359 
z"/>
<path fill="#D12E34" opacity="1.000000" stroke="none" 
	d="
M201.187408,128.160217 
	C201.444107,127.699127 201.885330,127.407860 202.593033,127.089493 
	C202.363663,127.484940 201.867798,127.907486 201.187408,128.160217 
z"/>
<path fill="#D12E34" opacity="1.000000" stroke="none" 
	d="
M203.284210,126.738602 
	C203.231033,126.598656 203.393570,126.399368 203.769867,126.136307 
	C203.818771,126.271049 203.657532,126.473297 203.284210,126.738602 
z"/>
<path fill="#232376" opacity="1.000000" stroke="none" 
	d="
M278.143890,418.982147 
	C281.748199,418.981415 284.886719,418.981415 288.025238,418.981415 
	C288.012177,419.482880 287.999146,419.984375 287.986084,420.485840 
	C282.671204,420.485840 277.356323,420.485840 272.041443,420.485840 
	C271.994598,420.134979 271.947754,419.784149 271.900879,419.433289 
	C273.826630,419.283142 275.752350,419.133026 278.143890,418.982147 
z"/>
<path fill="#151677" opacity="1.000000" stroke="none" 
	d="
M112.729149,229.420914 
	C112.987061,283.789368 112.988495,338.470032 112.979599,393.631927 
	C112.786728,394.099518 112.604187,394.085876 112.146629,394.049896 
	C111.914230,341.237823 111.951782,288.448090 112.019226,235.658417 
	C112.021751,233.683121 112.314941,231.708191 112.729149,229.420914 
z"/>
<path fill="#232376" opacity="1.000000" stroke="none" 
	d="
M59.468513,280.873138 
	C59.080482,278.963043 59.036549,276.941071 58.990540,274.488129 
	C62.131252,275.939301 61.450737,278.291412 59.468513,280.873138 
z"/>
<path fill="#EA1C25" opacity="1.000000" stroke="none" 
	d="
M400.023438,131.025513 
	C399.684631,131.495163 399.320465,131.938782 398.956268,132.382385 
	C398.842163,132.275940 398.620148,132.087616 398.629730,132.074982 
	C398.892334,131.728729 399.178528,131.400391 399.703369,131.008911 
	C399.945892,130.948761 399.998047,130.999481 400.023438,131.025513 
z"/>
<path fill="#C74246" opacity="1.000000" stroke="none" 
	d="
M296.987579,28.890415 
	C294.475372,29.019283 291.983246,28.924536 289.030060,28.678501 
	C291.107117,28.369213 293.645203,28.211216 296.611572,28.136070 
	C297.039856,28.218924 297.007660,28.666801 296.987579,28.890415 
z"/>
<path fill="#C74246" opacity="1.000000" stroke="none" 
	d="
M284.371094,28.530285 
	C283.481110,28.817663 282.363556,28.894133 281.069153,28.642771 
	C281.976013,28.316418 283.059814,28.317896 284.371094,28.530285 
z"/>
<path fill="#C74246" opacity="1.000000" stroke="none" 
	d="
M270.477234,28.589603 
	C269.562561,29.021807 268.451416,29.229202 266.828369,29.129816 
	C267.637909,28.670286 268.959320,28.517540 270.477234,28.589603 
z"/>
</svg>